<mxfile host="app.diagrams.net" modified="2024-05-15T02:10:43.108Z" agent="Mozilla/5.0 (Windows NT 10.0; Win64; x64) AppleWebKit/537.36 (KHTML, like Gecko) Chrome/119.0.0.0 Safari/537.36" version="24.4.0" etag="h0ScFlYiGWFS2gMkLK1_" type="github">
  <diagram name="第 1 页" id="QQxD2RmnwuDl3KYjzEUQ">
    <mxGraphModel>
      <root>
        <mxCell id="0" />
        <mxCell id="1" parent="0" />
      </root>
    </mxGraphModel>
  </diagram>
</mxfile>
